<?xml version="1.0" standalone="no"?>
<!DOCTYPE svg PUBLIC "-//W3C//DTD SVG 20010904//EN"
 "http://www.w3.org/TR/2001/REC-SVG-20010904/DTD/svg10.dtd">
<svg version="1.0" xmlns="http://www.w3.org/2000/svg"
 width="730.000000pt" height="461.000000pt" viewBox="0 0 730.000000 461.000000"
 preserveAspectRatio="xMidYMid meet">

<g transform="translate(0.000000,461.000000) scale(0.100000,-0.100000)"
fill="#000000" stroke="none">
<path d="M3148 3843 c7 -3 16 -2 19 1 4 3 -2 6 -13 5 -11 0 -14 -3 -6 -6z"/>
<path d="M3429 3840 c-186 -22 -425 -111 -604 -225 -56 -36 -187 -142 -225
-183 -178 -192 -274 -344 -349 -555 -53 -151 -72 -263 -78 -462 -4 -153 -2
-198 15 -300 42 -247 118 -421 276 -635 200 -271 445 -435 785 -522 122 -32
132 -33 321 -32 213 0 315 16 456 69 72 27 112 52 53 34 -174 -55 -330 -80
-506 -80 -142 0 -228 10 -347 41 -87 22 -97 27 -77 39 9 6 1 11 -24 15 -61 12
-243 96 -325 150 -90 60 -288 255 -351 346 -189 275 -289 646 -259 967 33 359
191 688 451 938 111 106 209 175 345 243 159 79 310 123 509 147 76 9 93 13
55 12 -30 0 -85 -3 -121 -7z"/>
<path d="M3050 3818 c-14 -6 -42 -17 -63 -26 -20 -8 -36 -17 -34 -18 2 -2 37
10 78 26 41 16 67 29 59 29 -8 0 -26 -5 -40 -11z"/>
<path d="M4240 3695 c0 -2 33 -26 73 -52 105 -69 289 -257 370 -378 130 -197
219 -437 250 -680 3 -23 4 -19 6 13 2 58 -34 227 -71 332 -91 260 -283 527
-492 682 -77 58 -136 94 -136 83z"/>
<path d="M4630 3390 c0 -5 5 -10 10 -10 6 0 10 5 10 10 0 6 -4 10 -10 10 -5 0
-10 -4 -10 -10z"/>
<path d="M2378 3333 c-30 -34 -126 -190 -153 -249 -45 -97 -81 -212 -106 -334
-32 -155 -35 -477 -5 -610 36 -166 124 -391 175 -450 18 -21 17 -16 -7 30 -75
146 -134 326 -158 485 -20 131 -20 373 0 497 30 182 116 403 220 562 55 85 64
102 34 69z"/>
<path d="M4610 3240 c0 -5 5 -10 10 -10 6 0 10 5 10 10 0 6 -4 10 -10 10 -5 0
-10 -4 -10 -10z"/>
<path d="M2680 2429 c0 -135 17 -157 22 -29 l3 75 33 -62 c18 -35 34 -63 37
-63 3 0 19 28 37 63 l33 62 3 -82 c4 -129 22 -99 22 37 0 66 -4 120 -9 120 -4
0 -23 -34 -41 -75 -18 -42 -37 -78 -42 -81 -4 -3 -25 29 -44 70 -20 42 -40 79
-45 82 -5 3 -9 -49 -9 -117z"/>
<path d="M2957 2543 c-3 -5 -4 -24 -2 -43 2 -19 3 -60 4 -91 1 -65 25 -99 71
-99 42 0 59 9 75 41 17 33 21 199 5 199 -6 0 -10 -37 -10 -90 0 -99 -15 -130
-64 -130 -51 0 -73 56 -63 156 5 48 -4 78 -16 57z"/>
<path d="M3200 2431 c0 -74 4 -121 10 -121 6 0 10 35 10 85 0 47 4 85 9 85 4
0 30 -37 56 -82 56 -98 54 -95 63 -81 11 18 2 234 -9 227 -6 -4 -9 -38 -7 -83
1 -43 -1 -76 -7 -76 -5 0 -30 36 -56 80 -26 43 -52 81 -58 83 -8 3 -11 -33
-11 -117z"/>
<path d="M3466 2523 c-32 -32 -40 -61 -33 -115 11 -79 95 -126 153 -84 24 18
13 31 -14 17 -34 -18 -62 -13 -93 18 -71 72 -9 194 82 162 38 -13 52 -5 25 15
-33 24 -90 18 -120 -13z"/>
<path d="M3670 2502 c0 -26 -5 -53 -11 -59 -8 -8 -8 -13 0 -17 6 -4 11 -29 11
-56 0 -70 18 -72 22 -3 l3 58 55 0 55 0 3 -57 c4 -73 22 -76 22 -5 0 29 6 59
13 66 10 11 10 14 0 18 -8 3 -13 24 -13 54 0 27 -4 49 -10 49 -5 0 -10 -22
-10 -50 l0 -50 -60 0 -60 0 0 50 c0 28 -4 50 -10 50 -5 0 -10 -22 -10 -48z"/>
<path d="M3902 2538 c3 -7 14 -14 26 -16 21 -3 22 -9 22 -92 0 -83 -1 -89 -22
-92 -12 -2 -23 -9 -26 -15 -3 -9 12 -13 52 -13 56 0 77 16 36 27 -20 5 -21 9
-25 108 -1 56 4 72 26 78 40 11 18 27 -37 27 -40 0 -55 -4 -52 -12z"/>
<path d="M4080 2501 c0 -30 -5 -52 -12 -55 -10 -5 -10 -7 0 -12 7 -4 12 -27
12 -65 l0 -59 66 0 c48 0 64 3 61 13 -2 6 -17 11 -33 9 -16 -1 -39 0 -52 3
-20 5 -23 11 -20 48 l3 42 48 3 c59 4 52 22 -9 22 -44 0 -44 0 -44 35 0 38 20
49 75 43 16 -2 30 2 32 10 4 9 -13 12 -61 12 l-66 0 0 -49z"/>
<path d="M4295 2534 c-30 -30 -15 -66 43 -103 39 -25 52 -40 52 -58 0 -33 -41
-51 -83 -35 -37 14 -50 6 -23 -14 47 -34 126 -6 126 45 0 34 -14 52 -67 85
-52 32 -57 40 -37 60 18 18 47 21 75 6 15 -8 19 -7 19 4 0 29 -78 36 -105 10z"/>
<path d="M4910 2248 c-33 -243 -123 -474 -263 -678 -68 -98 -243 -272 -337
-335 -102 -68 -240 -141 -330 -175 -41 -16 -67 -29 -57 -30 57 -1 310 126 439
222 301 223 523 624 563 1021 11 99 0 81 -15 -25z"/>
<path d="M2365 1830 c-4 -7 -3 -16 3 -22 14 -14 45 -2 40 15 -6 16 -34 21 -43
7z"/>
<path d="M4679 1453 c-13 -16 -12 -17 4 -4 16 13 21 21 13 21 -2 0 -10 -8 -17
-17z"/>
<path d="M2420 1410 c0 -5 5 -10 10 -10 6 0 10 5 10 10 0 6 -4 10 -10 10 -5 0
-10 -4 -10 -10z"/>
<path d="M2500 1340 c0 -5 5 -10 10 -10 6 0 10 5 10 10 0 6 -4 10 -10 10 -5 0
-10 -4 -10 -10z"/>
<path d="M4479 1243 c-13 -16 -12 -17 4 -4 9 7 17 15 17 17 0 8 -8 3 -21 -13z"/>
<path d="M4434 1208 l-19 -23 23 19 c21 18 27 26 19 26 -2 0 -12 -10 -23 -22z"/>
</g>
</svg>
